HIERARCHY
ROOT Hips
{
    OFFSET 0.000000 0.000000 0.000000
    CHANNELS 6 Xposition Yposition Zposition Zrotation Xrotation Yrotation
    JOINT Spine
    {
        OFFSET -0.000000 0.080487 -0.000000
        CHANNELS 3 Zrotation Xrotation Yrotation
        JOINT Spine1
        {
            OFFSET -0.000000 0.226501 -0.000000
            CHANNELS 3 Zrotation Xrotation Yrotation
            JOINT Neck
            {
                OFFSET 0.000000 0.241634 0.000000
                CHANNELS 3 Zrotation Xrotation Yrotation
                JOINT Head
                {
                    OFFSET -0.000000 0.146889 0.019347
                    CHANNELS 3 Zrotation Xrotation Yrotation
                    End Site
                    {
                        OFFSET 0.000000 0.193473 0.000000
                    }
                }
            }
            JOINT LeftShoulder
            {
                OFFSET 0.038662 0.198558 -0.002825
                CHANNELS 3 Zrotation Xrotation Yrotation
                JOINT LeftArm
                {
                    OFFSET 0.115149 -0.000000 -0.000000
                    CHANNELS 3 Zrotation Xrotation Yrotation
                    JOINT LeftForeArm
                    {
                        OFFSET 0.287323 -0.000000 -0.000000
                        CHANNELS 3 Zrotation Xrotation Yrotation
                        JOINT LeftHand
                        {
                            OFFSET 0.292989 -0.000000 -0.000000
                            CHANNELS 3 Zrotation Xrotation Yrotation
                            JOINT LeftHandThumb1
                            {
                                OFFSET 0.020218 -0.022975 0.032165
                                CHANNELS 3 Zrotation Xrotation Yrotation
                                JOINT LeftHandThumb2
                                {
                                    OFFSET 0.030536 0.000000 -0.000000
                                    CHANNELS 3 Zrotation Xrotation Yrotation
                                    JOINT LeftHandThumb3
                                    {
                                        OFFSET 0.026100 0.000000 -0.000000
                                        CHANNELS 3 Zrotation Xrotation Yrotation
                                        End Site
                                        {
                                            OFFSET 0.025248 0.000000 0.000000
                                        }
                                    }
                                }
                            }
                            JOINT LeftHandIndex1
                            {
                                OFFSET 0.082710 -0.000000 0.032165
                                CHANNELS 3 Zrotation Xrotation Yrotation
                                JOINT LeftHandIndex2
                                {
                                    OFFSET 0.045950 0.000000 -0.000000
                                    CHANNELS 3 Zrotation Xrotation Yrotation
                                    JOINT LeftHandIndex3
                                    {
                                        OFFSET 0.022975 0.000000 -0.000000
                                        CHANNELS 3 Zrotation Xrotation Yrotation
                                        End Site
                                        {
                                            OFFSET 0.022225 0.000000 0.000000
                                        }
                                    }
                                }
                            }
                            JOINT LeftHandMiddle1
                            {
                                OFFSET 0.082710 0.000000 0.010660
                                CHANNELS 3 Zrotation Xrotation Yrotation
                                JOINT LeftHandMiddle2
                                {
                                    OFFSET 0.050545 0.000000 -0.000000
                                    CHANNELS 3 Zrotation Xrotation Yrotation
                                    JOINT LeftHandMiddle3
                                    {
                                        OFFSET 0.027570 0.000000 -0.000000
                                        CHANNELS 3 Zrotation Xrotation Yrotation
                                        End Site
                                        {
                                            OFFSET 0.026670 0.000000 0.000000
                                        }
                                    }
                                }
                            }
                            JOINT LeftHandRing1
                            {
                                OFFSET 0.078115 -0.000000 -0.010660
                                CHANNELS 3 Zrotation Xrotation Yrotation
                                JOINT LeftHandRing2
                                {
                                    OFFSET 0.045950 0.000000 -0.000000
                                    CHANNELS 3 Zrotation Xrotation Yrotation
                                    JOINT LeftHandRing3
                                    {
                                        OFFSET 0.022975 0.000000 0.000000
                                        CHANNELS 3 Zrotation Xrotation Yrotation
                                        End Site
                                        {
                                            OFFSET 0.022225 0.000000 0.000000
                                        }
                                    }
                                }
                            }
                            JOINT LeftHandPinky1
                            {
                                OFFSET 0.073520 0.000000 -0.032165
                                CHANNELS 3 Zrotation Xrotation Yrotation
                                JOINT LeftHandPinky2
                                {
                                    OFFSET 0.036760 -0.000000 -0.000000
                                    CHANNELS 3 Zrotation Xrotation Yrotation
                                    JOINT LeftHandPinky3
                                    {
                                        OFFSET 0.018380 -0.000000 -0.000000
                                        CHANNELS 3 Zrotation Xrotation Yrotation
                                        End Site
                                        {
                                            OFFSET 0.017780 0.000000 0.000000
                                        }
                                    }
                                }
                            }
                        }
                    }
                }
            }
            JOINT RightShoulder
            {
                OFFSET -0.038662 0.198558 -0.002825
                CHANNELS 3 Zrotation Xrotation Yrotation
                JOINT RightArm
                {
                    OFFSET -0.115149 -0.000000 0.000000
                    CHANNELS 3 Zrotation Xrotation Yrotation
                    JOINT RightForeArm
                    {
                        OFFSET -0.287323 -0.000000 0.000000
                        CHANNELS 3 Zrotation Xrotation Yrotation
                        JOINT RightHand
                        {
                            OFFSET -0.292989 0.000000 0.000000
                            CHANNELS 3 Zrotation Xrotation Yrotation
                            JOINT RightHandThumb1
                            {
                                OFFSET -0.020218 -0.022975 0.032165
                                CHANNELS 3 Zrotation Xrotation Yrotation
                                JOINT RightHandThumb2
                                {
                                    OFFSET -0.030536 0.000000 -0.000000
                                    CHANNELS 3 Zrotation Xrotation Yrotation
                                    JOINT RightHandThumb3
                                    {
                                        OFFSET -0.026100 -0.000000 0.000000
                                        CHANNELS 3 Zrotation Xrotation Yrotation
                                        End Site
                                        {
                                            OFFSET -0.025248 0.000000 0.000000
                                        }
                                    }
                                }
                            }
                            JOINT RightHandIndex1
                            {
                                OFFSET -0.082710 -0.000000 0.032165
                                CHANNELS 3 Zrotation Xrotation Yrotation
                                JOINT RightHandIndex2
                                {
                                    OFFSET -0.045950 0.000000 0.000000
                                    CHANNELS 3 Zrotation Xrotation Yrotation
                                    JOINT RightHandIndex3
                                    {
                                        OFFSET -0.022975 -0.000000 -0.000000
                                        CHANNELS 3 Zrotation Xrotation Yrotation
                                        End Site
                                        {
                                            OFFSET -0.022225 0.000000 0.000000
                                        }
                                    }
                                }
                            }
                            JOINT RightHandMiddle1
                            {
                                OFFSET -0.082710 -0.000000 0.010660
                                CHANNELS 3 Zrotation Xrotation Yrotation
                                JOINT RightHandMiddle2
                                {
                                    OFFSET -0.050545 0.000000 0.000000
                                    CHANNELS 3 Zrotation Xrotation Yrotation
                                    JOINT RightHandMiddle3
                                    {
                                        OFFSET -0.027570 -0.000000 -0.000000
                                        CHANNELS 3 Zrotation Xrotation Yrotation
                                        End Site
                                        {
                                            OFFSET -0.026670 0.000000 0.000000
                                        }
                                    }
                                }
                            }
                            JOINT RightHandRing1
                            {
                                OFFSET -0.078115 -0.000000 -0.010660
                                CHANNELS 3 Zrotation Xrotation Yrotation
                                JOINT RightHandRing2
                                {
                                    OFFSET -0.045950 -0.000000 -0.000000
                                    CHANNELS 3 Zrotation Xrotation Yrotation
                                    JOINT RightHandRing3
                                    {
                                        OFFSET -0.022975 -0.000000 -0.000000
                                        CHANNELS 3 Zrotation Xrotation Yrotation
                                        End Site
                                        {
                                            OFFSET -0.022225 0.000000 0.000000
                                        }
                                    }
                                }
                            }
                            JOINT RightHandPinky1
                            {
                                OFFSET -0.073520 0.000000 -0.032165
                                CHANNELS 3 Zrotation Xrotation Yrotation
                                JOINT RightHandPinky2
                                {
                                    OFFSET -0.036760 0.000000 0.000000
                                    CHANNELS 3 Zrotation Xrotation Yrotation
                                    JOINT RightHandPinky3
                                    {
                                        OFFSET -0.018380 -0.000000 -0.000000
                                        CHANNELS 3 Zrotation Xrotation Yrotation
                                        End Site
                                        {
                                            OFFSET -0.017780 0.000000 0.000000
                                        }
                                    }
                                }
                            }
                        }
                    }
                }
            }
        }
    }
    JOINT LeftUpLeg
    {
        OFFSET 0.096737 -0.000000 -0.000000
        CHANNELS 3 Zrotation Xrotation Yrotation
        JOINT LeftLeg
        {
            OFFSET -0.000000 -0.425128 0.000000
            CHANNELS 3 Zrotation Xrotation Yrotation
            JOINT LeftFoot
            {
                OFFSET -0.000000 -0.463118 0.000000
                CHANNELS 3 Zrotation Xrotation Yrotation
                JOINT LeftToeBase
                {
                    OFFSET 0.000000 -0.062879 0.145105
                    CHANNELS 3 Zrotation Xrotation Yrotation
                    End Site
                    {
                        OFFSET 0.000000 0.000000 0.038695
                    }
                }
            }
        }
    }
    JOINT RightUpLeg
    {
        OFFSET -0.096737 0.000000 0.000000
        CHANNELS 3 Zrotation Xrotation Yrotation
        JOINT RightLeg
        {
            OFFSET -0.000000 -0.425128 -0.000000
            CHANNELS 3 Zrotation Xrotation Yrotation
            JOINT RightFoot
            {
                OFFSET 0.000000 -0.463118 -0.000000
                CHANNELS 3 Zrotation Xrotation Yrotation
                JOINT RightToeBase
                {
                    OFFSET 0.000000 -0.062879 0.145105
                    CHANNELS 3 Zrotation Xrotation Yrotation
                    End Site
                    {
                        OFFSET 0.000000 0.000000 0.038695
                    }
                }
            }
        }
    }
}
MOTION
Frames:    4
Frame Time:    0.016667
0.189615    0.942713    -0.073324    3.954349    -0.903027    -87.916229    0.101942    -13.305759    0.442935    0.580903    10.155510    0.321881    6.677629    -7.048415    4.489904    0.311983    -3.802874    3.686409    10.339573    -1.970515    -3.796209    -20.527027    -1.647642    -1.148317    -0.244422    -21.466232    -0.667881    -5.171539    -2.319752    4.185431    22.108767    45.548767    -59.505783    -22.867792    -4.684816    22.867792    -0.000000    0.000000    -0.000000    -6.021930    17.906988    -13.930629    -5.729206    0.000004    -0.000005    -5.729208    -0.000000    0.000001    -5.729204    0.000004    -7.894209    -5.729207    -0.000002    0.000009    -5.729207    0.000002    -0.000001    -5.729209    -0.000004    5.262810    -5.729200    0.000002    0.000004    -5.729211    -0.000005    -0.000004    -6.021924    -17.906990    8.667856    -5.729202    0.000005    -0.000004    -5.729211    -0.000003    0.000000    -9.547197    -0.056324    0.416222    19.822906    -4.356785    5.914652    1.212727    -32.001598    2.287535    -11.278886    -4.187189    -4.180976    -22.108768    45.548779    59.505783    22.867792    -4.684813    -22.867798    -0.000000    0.000000    -0.000000    6.021927    17.906982    13.930635    5.729203    -0.000000    -0.000000    5.729206    -0.000000    -0.000001    5.729204    -0.000007    7.894202    5.729204    0.000002    0.000004    5.729206    0.000004    0.000003    5.729202    -0.000003    -5.262809    5.729200    -0.000000    -0.000009    5.729212    0.000010    0.000013    6.021920    -17.906988    -8.667852    5.729207    -0.000005    -0.000001    5.729202    -0.000002    0.000003    0.593732    0.261291    3.824830    0.000000    0.400422    -0.000001    0.401604    -4.750178    4.910507    -0.000000    1.477170    0.000005    -2.139846    -4.182259    -6.337311    -0.000000    10.704172    -0.000003    4.027021    -11.637770    -1.797788    0.000000    0.692188    0.000002    
0.189612    0.942719    -0.073275    3.954901    -0.904114    -87.908302    0.101898    -13.312183    0.442538    0.582265    10.155582    0.321219    6.697506    -7.037171    4.482897    0.317285    -3.797706    3.678348    10.341275    -1.967415    -3.798087    -20.519196    -1.632556    -1.149099    -0.242303    -21.459402    -0.662297    -5.197591    -2.307700    4.186917    22.107758    45.552559    -59.512211    -22.867792    -4.684820    22.867796    -0.000000    0.000000    -0.000000    -6.021933    17.906988    -13.936100    -5.729213    -0.000002    0.000008    -5.729212    -0.000002    0.000001    -5.729210    0.000000    -7.896938    -5.729213    0.000000    -0.000001    -5.729211    -0.000000    0.000010    -5.729210    0.000003    5.264623    -5.729214    -0.000004    0.000007    -5.729210    0.000002    -0.000003    -6.021932    -17.906988    8.671481    -5.729215    0.000001    -0.000011    -5.729210    -0.000002    0.000006    -9.537071    -0.053954    0.416012    19.837332    -4.351699    5.916969    1.216668    -32.024807    2.293479    -11.249535    -4.198427    -4.197853    -22.107750    45.552559    59.512203    22.867792    -4.684813    -22.867802    -0.000000    0.000000    -0.000000    6.021934    17.906986    13.936090    5.729208    0.000002    -0.000000    5.729212    -0.000001    -0.000000    5.729211    -0.000005    7.896931    5.729214    0.000001    -0.000004    5.729208    0.000007    0.000004    5.729215    0.000001    -5.264625    5.729212    0.000001    0.000001    5.729211    -0.000002    -0.000009    6.021931    -17.906996    -8.671489    5.729207    0.000000    0.000002    5.729210    0.000009    0.000004    0.590318    0.257924    3.820893    -0.000000    0.403787    0.000002    0.403610    -4.750738    4.903336    0.000000    1.474589    -0.000013    -2.144970    -4.185942    -6.342298    -0.000000    10.712063    -0.000008    4.023499    -11.637693    -1.799454    0.000000    0.691765    0.000005    
0.189599    0.942708    -0.073233    3.955583    -0.905745    -87.899834    0.101864    -13.318478    0.442176    0.584290    10.158092    0.320523    6.710097    -7.031218    4.476351    0.318910    -3.796842    3.670897    10.340693    -1.967623    -3.796772    -20.516436    -1.625289    -1.150368    -0.241481    -21.475504    -0.659579    -5.207341    -2.294964    4.200383    22.106764    45.556343    -59.518612    -22.867786    -4.684811    22.867790    -0.000000    0.000000    -0.000000    -6.021939    17.906988    -13.941533    -5.729214    -0.000002    0.000012    -5.729219    0.000004    -0.000015    -5.729217    -0.000001    -7.899653    -5.729218    -0.000003    0.000001    -5.729214    0.000005    -0.000005    -5.729220    -0.000000    5.266429    -5.729215    -0.000002    0.000007    -5.729213    0.000003    -0.000000    -6.021935    -17.906988    8.675096    -5.729219    -0.000003    -0.000006    -5.729214    0.000005    -0.000002    -9.530862    -0.038925    0.415242    19.849361    -4.331197    5.912111    1.222092    -32.040241    2.302707    -11.187544    -4.221091    -4.221530    -22.106766    45.556358    59.518612    22.867785    -4.684810    -22.867783    -0.000000    0.000000    -0.000000    6.021940    17.906988    13.941520    5.729217    0.000000    0.000008    5.729215    -0.000001    -0.000005    5.729217    0.000001    7.899652    5.729215    -0.000005    -0.000008    5.729219    0.000009    0.000012    5.729218    0.000001    -5.266438    5.729214    -0.000001    -0.000002    5.729215    0.000001    0.000001    6.021940    -17.906988    -8.675096    5.729217    0.000002    -0.000001    5.729215    -0.000000    -0.000004    0.586062    0.254677    3.816206    0.000000    0.407917    -0.000003    0.404685    -4.752254    4.900301    -0.000000    1.473943    0.000001    -2.150069    -4.187788    -6.350525    -0.000000    10.720160    -0.000006    4.022619    -11.635227    -1.804740    0.000000    0.691683    -0.000001    
0.189588    0.942705    -0.073192    3.955989    -0.907920    -87.892769    0.101873    -13.325047    0.442011    0.586822    10.161867    0.319855    6.719185    -7.029220    4.471558    0.319553    -3.796396    3.665203    10.339517    -1.963788    -3.797396    -20.513054    -1.615364    -1.149196    -0.238950    -21.476719    -0.652631    -5.231800    -2.290037    4.210909    22.105783    45.560123    -59.525005    -22.867792    -4.684816    22.867781    -0.000000    0.000000    -0.000000    -6.021948    17.906988    -13.946941    -5.729223    0.000002    0.000002    -5.729223    0.000002    -0.000008    -5.729221    0.000003    -7.902363    -5.729227    0.000002    -0.000012    -5.729221    -0.000002    0.000011    -5.729222    0.000001    5.268244    -5.729227    0.000002    -0.000011    -5.729225    -0.000001    -0.000005    -6.021953    -17.906986    8.678684    -5.729217    -0.000002    0.000009    -5.729223    -0.000000    0.000001    -9.522859    -0.033793    0.417137    19.857357    -4.317688    5.910201    1.221198    -32.051949    2.300276    -11.141781    -4.229649    -4.232135    -22.105778    45.560143    59.525005    22.867790    -4.684811    -22.867783    -0.000000    0.000000    -0.000000    6.021948    17.906988    13.946946    5.729222    -0.000002    -0.000011    5.729221    0.000004    0.000006    5.729219    0.000003    7.902354    5.729222    -0.000003    0.000000    5.729220    0.000005    0.000004    5.729217    0.000001    -5.268248    5.729228    -0.000001    0.000006    5.729225    0.000005    0.000006    6.021945    -17.906986    -8.678699    5.729222    0.000002    0.000002    5.729220    -0.000002    -0.000002    0.581442    0.252344    3.811427    -0.000000    0.412148    -0.000000    0.403706    -4.758890    4.893784    -0.000000    1.472936    0.000003    -2.155980    -4.188107    -6.355961    0.000000    10.721305    -0.000004    4.023774    -11.645306    -1.803291    0.000000    0.691945    -0.000004    
